<svg width="417" height="230" viewBox="0 0 417 230" fill="none" xmlns="http://www.w3.org/2000/svg">
<path d="M-23 104.424C38.2029 66.9236 38.5848 157.873 80.5928 157.873C122.601 157.873 110.762 103.112 159.262 94.2679C207.762 85.4235 238.314 192.424 277.648 192.424C316.983 192.424 335.314 49.4235 349.062 49.4235C362.81 49.4235 355.172 121.924 389.16 121.924C423.149 121.924 444.376 74.084 478.523 72.4235" stroke="#EF5DA8" stroke-width="2" stroke-linejoin="round"/>
<path d="M-23 229.151C-13.3797 196.633 22.1679 118.649 59.5498 120.31C67.3376 120.31 79.5328 127.504 89.7851 126.536C97.1148 125.844 114.523 112.422 125.518 64.2679C136.512 16.1141 147.241 1.96901 154.379 2.00005C158.633 1.99999 167.297 11.9621 174.994 60.1167C183.698 103.012 209.627 188.388 243.71 186.727C251.04 187.419 269.273 179.255 283.566 141.064C300.974 98.1688 331.839 16.5287 366.026 16.5287C400.212 16.5287 414.316 72.9235 458.914 75.4235" stroke="#3751FF" stroke-width="2" stroke-linejoin="round"/>
<path opacity="0.16" d="M315.652 78.4235C321.705 78.4235 326.256 72.3839 326.256 65.4235C326.256 58.4631 321.705 52.4235 315.652 52.4235C309.599 52.4235 305.048 58.4631 305.048 65.4235C305.048 72.3839 309.599 78.4235 315.652 78.4235Z" stroke="#3751FF" stroke-width="2"/>
<g filter="url(#filter0_d_3_346)">
<ellipse cx="315.652" cy="65.4235" rx="5.60243" ry="7" fill="white"/>
<path d="M319.254 65.4235C319.254 68.6236 317.249 70.4235 315.652 70.4235C314.055 70.4235 312.05 68.6236 312.05 65.4235C312.05 62.2235 314.055 60.4235 315.652 60.4235C317.249 60.4235 319.254 62.2235 319.254 65.4235Z" stroke="#3751FF" stroke-width="4"/>
</g>
<g filter="url(#filter1_d_3_346)">
<mask id="path-6-outside-1_3_346" maskUnits="userSpaceOnUse" x="289.241" y="3.42352" width="53" height="38" fill="black">
<rect fill="white" x="289.241" y="3.42352" width="53" height="38"/>
<path fill-rule="evenodd" clip-rule="evenodd" d="M294.241 4.42352H337.241C339.45 4.42352 341.241 6.21438 341.241 8.42352V30.4235C341.241 32.6327 339.45 34.4235 337.241 34.4235L322.241 34.4235L315.501 40.2004C315.351 40.3288 315.13 40.3288 314.98 40.2004L308.241 34.4235L294.241 34.4235C292.031 34.4235 290.241 32.6327 290.241 30.4235V8.42352C290.241 6.21438 292.031 4.42352 294.241 4.42352Z"/>
</mask>
<path fill-rule="evenodd" clip-rule="evenodd" d="M294.241 4.42352H337.241C339.45 4.42352 341.241 6.21438 341.241 8.42352V30.4235C341.241 32.6327 339.45 34.4235 337.241 34.4235L322.241 34.4235L315.501 40.2004C315.351 40.3288 315.13 40.3288 314.98 40.2004L308.241 34.4235L294.241 34.4235C292.031 34.4235 290.241 32.6327 290.241 30.4235V8.42352C290.241 6.21438 292.031 4.42352 294.241 4.42352Z" fill="white"/>
<path d="M337.241 34.4235V34.9235V34.4235ZM322.241 34.4235V33.9235H322.056L321.915 34.0439L322.241 34.4235ZM315.501 40.2004L315.176 39.8208L315.176 39.8208L315.501 40.2004ZM314.98 40.2004L315.306 39.8208L315.306 39.8208L314.98 40.2004ZM308.241 34.4235L308.566 34.0439L308.426 33.9235H308.241V34.4235ZM294.241 34.4235V34.9235V34.4235ZM337.241 3.92352H294.241V4.92352H337.241V3.92352ZM341.741 8.42352C341.741 5.93824 339.726 3.92352 337.241 3.92352V4.92352C339.174 4.92352 340.741 6.49053 340.741 8.42352H341.741ZM341.741 30.4235V8.42352H340.741V30.4235H341.741ZM337.241 34.9235C339.726 34.9235 341.741 32.9088 341.741 30.4235H340.741C340.741 32.3565 339.174 33.9235 337.241 33.9235V34.9235ZM322.241 34.9235L337.241 34.9235V33.9235L322.241 33.9235V34.9235ZM321.915 34.0439L315.176 39.8208L315.826 40.58L322.566 34.8032L321.915 34.0439ZM315.176 39.8208C315.213 39.7887 315.268 39.7887 315.306 39.8208L314.655 40.58C314.992 40.8689 315.489 40.8689 315.826 40.58L315.176 39.8208ZM315.306 39.8208L308.566 34.0439L307.915 34.8032L314.655 40.58L315.306 39.8208ZM294.241 34.9235L308.241 34.9235V33.9235L294.241 33.9235V34.9235ZM289.741 30.4235C289.741 32.9088 291.755 34.9235 294.241 34.9235V33.9235C292.308 33.9235 290.741 32.3565 290.741 30.4235H289.741ZM289.741 8.42352V30.4235H290.741V8.42352H289.741ZM294.241 3.92352C291.755 3.92352 289.741 5.93824 289.741 8.42352H290.741C290.741 6.49053 292.308 4.92352 294.241 4.92352V3.92352Z" fill="#DFE0EB" mask="url(#path-6-outside-1_3_346)"/>
</g>
<path d="M312.816 19.2995C313.395 19.4675 313.838 19.7569 314.146 20.1675C314.454 20.5782 314.608 21.0962 314.608 21.7215C314.608 22.5895 314.3 23.2755 313.684 23.7795C313.077 24.2742 312.251 24.5215 311.206 24.5215C310.543 24.5215 309.909 24.4189 309.302 24.2135C308.705 23.9989 308.205 23.7002 307.804 23.3175L308.322 22.2535C309.218 22.9815 310.165 23.3455 311.164 23.3455C312.527 23.3455 313.208 22.7715 313.208 21.6235C313.208 21.0635 313.031 20.6482 312.676 20.3775C312.321 20.0975 311.785 19.9575 311.066 19.9575H309.848V18.7815H310.842C311.533 18.7815 312.06 18.6369 312.424 18.3475C312.788 18.0582 312.97 17.6382 312.97 17.0875C312.97 16.5835 312.816 16.1962 312.508 15.9255C312.209 15.6549 311.785 15.5195 311.234 15.5195C310.301 15.5195 309.377 15.8835 308.462 16.6115L307.944 15.5475C308.336 15.1742 308.831 14.8802 309.428 14.6655C310.035 14.4509 310.66 14.3435 311.304 14.3435C312.237 14.3435 312.979 14.5769 313.53 15.0435C314.09 15.5009 314.37 16.1215 314.37 16.9055C314.37 17.4749 314.235 17.9695 313.964 18.3895C313.693 18.8095 313.311 19.1129 312.816 19.2995ZM321.537 19.2995C322.181 19.4769 322.68 19.7802 323.035 20.2095C323.399 20.6389 323.581 21.1569 323.581 21.7635C323.581 22.6222 323.249 23.2989 322.587 23.7935C321.933 24.2789 321.051 24.5215 319.941 24.5215C318.83 24.5215 317.943 24.2789 317.281 23.7935C316.627 23.2989 316.301 22.6222 316.301 21.7635C316.301 21.1475 316.483 20.6249 316.847 20.1955C317.211 19.7662 317.719 19.4675 318.373 19.2995C317.794 19.1129 317.341 18.8189 317.015 18.4175C316.697 18.0162 316.539 17.5449 316.539 17.0035C316.539 16.4715 316.683 16.0049 316.973 15.6035C317.262 15.2022 317.663 14.8942 318.177 14.6795C318.69 14.4555 319.278 14.3435 319.941 14.3435C320.603 14.3435 321.191 14.4555 321.705 14.6795C322.218 14.8942 322.619 15.2022 322.909 15.6035C323.198 16.0049 323.343 16.4715 323.343 17.0035C323.343 17.5449 323.184 18.0209 322.867 18.4315C322.549 18.8329 322.106 19.1222 321.537 19.2995ZM317.925 17.1295C317.925 17.6149 318.107 18.0115 318.471 18.3195C318.835 18.6182 319.325 18.8095 319.941 18.8935C320.557 18.8095 321.047 18.6182 321.411 18.3195C321.775 18.0115 321.957 17.6149 321.957 17.1295C321.957 16.6162 321.775 16.2195 321.411 15.9395C321.056 15.6502 320.566 15.5055 319.941 15.5055C319.315 15.5055 318.821 15.6502 318.457 15.9395C318.102 16.2195 317.925 16.6162 317.925 17.1295ZM319.941 23.3595C320.659 23.3595 321.215 23.2149 321.607 22.9255C321.999 22.6362 322.195 22.2162 322.195 21.6655C322.195 21.1522 321.989 20.7462 321.579 20.4475C321.177 20.1395 320.631 19.9435 319.941 19.8595C319.25 19.9435 318.699 20.1395 318.289 20.4475C317.887 20.7462 317.687 21.1522 317.687 21.6655C317.687 22.2162 317.883 22.6362 318.275 22.9255C318.667 23.2149 319.222 23.3595 319.941 23.3595Z" fill="#252733"/>
<defs>
<filter id="filter0_d_3_346" x="308.05" y="57.4235" width="15.2048" height="18" filterUnits="userSpaceOnUse" color-interpolation-filters="sRGB">
<feFlood flood-opacity="0" result="BackgroundImageFix"/>
<feColorMatrix in="SourceAlpha" type="matrix" values="0 0 0 0 0 0 0 0 0 0 0 0 0 0 0 0 0 0 127 0" result="hardAlpha"/>
<feOffset dy="1"/>
<feGaussianBlur stdDeviation="1"/>
<feColorMatrix type="matrix" values="0 0 0 0 0.215686 0 0 0 0 0.317647 0 0 0 0 1 0 0 0 0.2 0"/>
<feBlend mode="normal" in2="BackgroundImageFix" result="effect1_dropShadow_3_346"/>
<feBlend mode="normal" in="SourceGraphic" in2="effect1_dropShadow_3_346" result="shape"/>
</filter>
<filter id="filter1_d_3_346" x="285.741" y="0.923523" width="60" height="44.8732" filterUnits="userSpaceOnUse" color-interpolation-filters="sRGB">
<feFlood flood-opacity="0" result="BackgroundImageFix"/>
<feColorMatrix in="SourceAlpha" type="matrix" values="0 0 0 0 0 0 0 0 0 0 0 0 0 0 0 0 0 0 127 0" result="hardAlpha"/>
<feOffset dy="1"/>
<feGaussianBlur stdDeviation="2"/>
<feColorMatrix type="matrix" values="0 0 0 0 0 0 0 0 0 0 0 0 0 0 0 0 0 0 0.08 0"/>
<feBlend mode="normal" in2="BackgroundImageFix" result="effect1_dropShadow_3_346"/>
<feBlend mode="normal" in="SourceGraphic" in2="effect1_dropShadow_3_346" result="shape"/>
</filter>
</defs>
</svg>
