<svg width="168" height="17" viewBox="0 0 168 17" fill="none" xmlns="http://www.w3.org/2000/svg">
<path d="M1 8H20" stroke="#3751FF" stroke-width="2" stroke-linecap="round"/>
<path d="M35.5957 4.624V5.98H33.3637V13H31.6837V5.98H29.4517V4.624H35.5957ZM39.8735 13.108C39.2335 13.108 38.6575 12.968 38.1455 12.688C37.6335 12.4 37.2295 11.996 36.9335 11.476C36.6455 10.956 36.5015 10.356 36.5015 9.676C36.5015 8.996 36.6495 8.396 36.9455 7.876C37.2495 7.356 37.6615 6.956 38.1815 6.676C38.7015 6.388 39.2815 6.244 39.9215 6.244C40.5615 6.244 41.1415 6.388 41.6615 6.676C42.1815 6.956 42.5895 7.356 42.8855 7.876C43.1895 8.396 43.3415 8.996 43.3415 9.676C43.3415 10.356 43.1855 10.956 42.8735 11.476C42.5695 11.996 42.1535 12.4 41.6255 12.688C41.1055 12.968 40.5215 13.108 39.8735 13.108ZM39.8735 11.644C40.1775 11.644 40.4615 11.572 40.7255 11.428C40.9975 11.276 41.2135 11.052 41.3735 10.756C41.5335 10.46 41.6135 10.1 41.6135 9.676C41.6135 9.044 41.4455 8.56 41.1095 8.224C40.7815 7.88 40.3775 7.708 39.8975 7.708C39.4175 7.708 39.0135 7.88 38.6855 8.224C38.3655 8.56 38.2055 9.044 38.2055 9.676C38.2055 10.308 38.3615 10.796 38.6735 11.14C38.9935 11.476 39.3935 11.644 39.8735 11.644ZM44.2419 9.652C44.2419 8.98 44.3739 8.384 44.6379 7.864C44.9099 7.344 45.2779 6.944 45.7419 6.664C46.2059 6.384 46.7219 6.244 47.2899 6.244C47.7219 6.244 48.1339 6.34 48.5259 6.532C48.9179 6.716 49.2299 6.964 49.4619 7.276V4.12H51.1659V13H49.4619V12.016C49.2539 12.344 48.9619 12.608 48.5859 12.808C48.2099 13.008 47.7739 13.108 47.2779 13.108C46.7179 13.108 46.2059 12.964 45.7419 12.676C45.2779 12.388 44.9099 11.984 44.6379 11.464C44.3739 10.936 44.2419 10.332 44.2419 9.652ZM49.4739 9.676C49.4739 9.268 49.3939 8.92 49.2339 8.632C49.0739 8.336 48.8579 8.112 48.5859 7.96C48.3139 7.8 48.0219 7.72 47.7099 7.72C47.3979 7.72 47.1099 7.796 46.8459 7.948C46.5819 8.1 46.3659 8.324 46.1979 8.62C46.0379 8.908 45.9579 9.252 45.9579 9.652C45.9579 10.052 46.0379 10.404 46.1979 10.708C46.3659 11.004 46.5819 11.232 46.8459 11.392C47.1179 11.552 47.4059 11.632 47.7099 11.632C48.0219 11.632 48.3139 11.556 48.5859 11.404C48.8579 11.244 49.0739 11.02 49.2339 10.732C49.3939 10.436 49.4739 10.084 49.4739 9.676ZM52.4747 9.652C52.4747 8.98 52.6067 8.384 52.8707 7.864C53.1427 7.344 53.5067 6.944 53.9627 6.664C54.4267 6.384 54.9427 6.244 55.5107 6.244C56.0067 6.244 56.4387 6.344 56.8067 6.544C57.1827 6.744 57.4827 6.996 57.7067 7.3V6.352H59.3987V13H57.7067V12.028C57.4907 12.34 57.1907 12.6 56.8067 12.808C56.4307 13.008 55.9947 13.108 55.4987 13.108C54.9387 13.108 54.4267 12.964 53.9627 12.676C53.5067 12.388 53.1427 11.984 52.8707 11.464C52.6067 10.936 52.4747 10.332 52.4747 9.652ZM57.7067 9.676C57.7067 9.268 57.6267 8.92 57.4667 8.632C57.3067 8.336 57.0907 8.112 56.8187 7.96C56.5467 7.8 56.2547 7.72 55.9427 7.72C55.6307 7.72 55.3427 7.796 55.0787 7.948C54.8147 8.1 54.5987 8.324 54.4307 8.62C54.2707 8.908 54.1907 9.252 54.1907 9.652C54.1907 10.052 54.2707 10.404 54.4307 10.708C54.5987 11.004 54.8147 11.232 55.0787 11.392C55.3507 11.552 55.6387 11.632 55.9427 11.632C56.2547 11.632 56.5467 11.556 56.8187 11.404C57.0907 11.244 57.3067 11.02 57.4667 10.732C57.6267 10.436 57.7067 10.084 57.7067 9.676ZM67.4995 6.352L63.3835 16.144H61.5955L63.0355 12.832L60.3715 6.352H62.2555L63.9715 10.996L65.7115 6.352H67.4995Z" fill="white"/>
<path d="M77 8H93" stroke="#EF5DA8" stroke-width="2" stroke-linecap="round"/>
<path d="M109.488 4.624L106.656 10.084V13H104.976V10.084L102.132 4.624H104.028L105.828 8.452L107.616 4.624H109.488ZM116.737 9.532C116.737 9.772 116.721 9.988 116.689 10.18H111.829C111.869 10.66 112.037 11.036 112.333 11.308C112.629 11.58 112.993 11.716 113.425 11.716C114.049 11.716 114.493 11.448 114.757 10.912H116.569C116.377 11.552 116.009 12.08 115.465 12.496C114.921 12.904 114.253 13.108 113.461 13.108C112.821 13.108 112.245 12.968 111.733 12.688C111.229 12.4 110.833 11.996 110.545 11.476C110.265 10.956 110.125 10.356 110.125 9.676C110.125 8.988 110.265 8.384 110.545 7.864C110.825 7.344 111.217 6.944 111.721 6.664C112.225 6.384 112.805 6.244 113.461 6.244C114.093 6.244 114.657 6.38 115.153 6.652C115.657 6.924 116.045 7.312 116.317 7.816C116.597 8.312 116.737 8.884 116.737 9.532ZM114.997 9.052C114.989 8.62 114.833 8.276 114.529 8.02C114.225 7.756 113.853 7.624 113.413 7.624C112.997 7.624 112.645 7.752 112.357 8.008C112.077 8.256 111.905 8.604 111.841 9.052H114.997ZM120.607 13.108C120.063 13.108 119.575 13.012 119.143 12.82C118.711 12.62 118.367 12.352 118.111 12.016C117.863 11.68 117.727 11.308 117.703 10.9H119.395C119.427 11.156 119.551 11.368 119.767 11.536C119.991 11.704 120.267 11.788 120.595 11.788C120.915 11.788 121.163 11.724 121.339 11.596C121.523 11.468 121.615 11.304 121.615 11.104C121.615 10.888 121.503 10.728 121.279 10.624C121.063 10.512 120.715 10.392 120.235 10.264C119.739 10.144 119.331 10.02 119.011 9.892C118.699 9.764 118.427 9.568 118.195 9.304C117.971 9.04 117.859 8.684 117.859 8.236C117.859 7.868 117.963 7.532 118.171 7.228C118.387 6.924 118.691 6.684 119.083 6.508C119.483 6.332 119.951 6.244 120.487 6.244C121.279 6.244 121.911 6.444 122.383 6.844C122.855 7.236 123.115 7.768 123.163 8.44H121.555C121.531 8.176 121.419 7.968 121.219 7.816C121.027 7.656 120.767 7.576 120.439 7.576C120.135 7.576 119.899 7.632 119.731 7.744C119.571 7.856 119.491 8.012 119.491 8.212C119.491 8.436 119.603 8.608 119.827 8.728C120.051 8.84 120.399 8.956 120.871 9.076C121.351 9.196 121.747 9.32 122.059 9.448C122.371 9.576 122.639 9.776 122.863 10.048C123.095 10.312 123.215 10.664 123.223 11.104C123.223 11.488 123.115 11.832 122.899 12.136C122.691 12.44 122.387 12.68 121.987 12.856C121.595 13.024 121.135 13.108 120.607 13.108ZM126.658 7.732V10.948C126.658 11.172 126.71 11.336 126.814 11.44C126.926 11.536 127.11 11.584 127.366 11.584H128.146V13H127.09C125.674 13 124.966 12.312 124.966 10.936V7.732H124.174V6.352H124.966V4.708H126.658V6.352H128.146V7.732H126.658ZM135.635 9.532C135.635 9.772 135.619 9.988 135.587 10.18H130.727C130.767 10.66 130.935 11.036 131.231 11.308C131.527 11.58 131.891 11.716 132.323 11.716C132.947 11.716 133.391 11.448 133.655 10.912H135.467C135.275 11.552 134.907 12.08 134.363 12.496C133.819 12.904 133.151 13.108 132.359 13.108C131.719 13.108 131.143 12.968 130.631 12.688C130.127 12.4 129.731 11.996 129.443 11.476C129.163 10.956 129.023 10.356 129.023 9.676C129.023 8.988 129.163 8.384 129.443 7.864C129.723 7.344 130.115 6.944 130.619 6.664C131.123 6.384 131.703 6.244 132.359 6.244C132.991 6.244 133.555 6.38 134.051 6.652C134.555 6.924 134.943 7.312 135.215 7.816C135.495 8.312 135.635 8.884 135.635 9.532ZM133.895 9.052C133.887 8.62 133.731 8.276 133.427 8.02C133.123 7.756 132.751 7.624 132.311 7.624C131.895 7.624 131.543 7.752 131.255 8.008C130.975 8.256 130.803 8.604 130.739 9.052H133.895ZM138.641 7.384C138.857 7.032 139.137 6.756 139.481 6.556C139.833 6.356 140.233 6.256 140.681 6.256V8.02H140.237C139.709 8.02 139.309 8.144 139.037 8.392C138.773 8.64 138.641 9.072 138.641 9.688V13H136.961V6.352H138.641V7.384ZM141.48 9.652C141.48 8.98 141.612 8.384 141.876 7.864C142.148 7.344 142.516 6.944 142.98 6.664C143.444 6.384 143.96 6.244 144.528 6.244C144.96 6.244 145.372 6.34 145.764 6.532C146.156 6.716 146.468 6.964 146.7 7.276V4.12H148.404V13H146.7V12.016C146.492 12.344 146.2 12.608 145.824 12.808C145.448 13.008 145.012 13.108 144.516 13.108C143.956 13.108 143.444 12.964 142.98 12.676C142.516 12.388 142.148 11.984 141.876 11.464C141.612 10.936 141.48 10.332 141.48 9.652ZM146.712 9.676C146.712 9.268 146.632 8.92 146.472 8.632C146.312 8.336 146.096 8.112 145.824 7.96C145.552 7.8 145.26 7.72 144.948 7.72C144.636 7.72 144.348 7.796 144.084 7.948C143.82 8.1 143.604 8.324 143.436 8.62C143.276 8.908 143.196 9.252 143.196 9.652C143.196 10.052 143.276 10.404 143.436 10.708C143.604 11.004 143.82 11.232 144.084 11.392C144.356 11.552 144.644 11.632 144.948 11.632C145.26 11.632 145.552 11.556 145.824 11.404C146.096 11.244 146.312 11.02 146.472 10.732C146.632 10.436 146.712 10.084 146.712 9.676ZM149.713 9.652C149.713 8.98 149.845 8.384 150.109 7.864C150.381 7.344 150.745 6.944 151.201 6.664C151.665 6.384 152.181 6.244 152.749 6.244C153.245 6.244 153.677 6.344 154.045 6.544C154.421 6.744 154.721 6.996 154.945 7.3V6.352H156.637V13H154.945V12.028C154.729 12.34 154.429 12.6 154.045 12.808C153.669 13.008 153.233 13.108 152.737 13.108C152.177 13.108 151.665 12.964 151.201 12.676C150.745 12.388 150.381 11.984 150.109 11.464C149.845 10.936 149.713 10.332 149.713 9.652ZM154.945 9.676C154.945 9.268 154.865 8.92 154.705 8.632C154.545 8.336 154.329 8.112 154.057 7.96C153.785 7.8 153.493 7.72 153.181 7.72C152.869 7.72 152.581 7.796 152.317 7.948C152.053 8.1 151.837 8.324 151.669 8.62C151.509 8.908 151.429 9.252 151.429 9.652C151.429 10.052 151.509 10.404 151.669 10.708C151.837 11.004 152.053 11.232 152.317 11.392C152.589 11.552 152.877 11.632 153.181 11.632C153.493 11.632 153.785 11.556 154.057 11.404C154.329 11.244 154.545 11.02 154.705 10.732C154.865 10.436 154.945 10.084 154.945 9.676ZM164.738 6.352L160.622 16.144H158.834L160.274 12.832L157.61 6.352H159.494L161.21 10.996L162.95 6.352H164.738Z" fill="white"/>
</svg>
